# xmcd
#
# Track frame offsets:
#	150
#	14271
#	30102
#	43681
#	67336
#	83944
#	103529
#	120995
#	143748
#	165622
#	185002
#	201289
#	218166
#	240451
#	262931
#	280807
#
# Disc length: 3892 seconds
#
# Revision: 0
# Processed by: cddbd v1.5.2PL0 Copyright (c) Steve Scherf et al.
# Submitted via: dBpowerAMP V4.0
#
DISCID=da0f3210
DTITLE=Various Artist - The Other Side: Music From East Nashville, Disk 2
DYEAR=2006
DGENRE=Americana
TTITLE0=Drink Ring Jesus (Remix) - Steven Simmons and Eric Fritsch
TTITLE1=Hysteria - Kieran Kane
TTITLE2=Five Year Town - Tim Carroll
TTITLE3=Try - Garrison Starr
TTITLE4=A Better Place To Be - Sergio Webb
TTITLE5=Crack In the Sky - Rick Clark
TTITLE6=Matchbox of Promises - Steve Wedemeyer
TTITLE7=Nightwalk - Jennifer Niceley
TTITLE8=The Confusion Before Dreams - Casey Driessen
TTITLE9=Nothing Is - Circus Dog Serenade
TTITLE10=Dead Language - K.S. Rhoads
TTITLE11=Ramblin' - Tom Mason
TTITLE12=A Birthday In the Pawn Shop - Meghan Hayes
TTITLE13=400 Miles To Go - Rich Gilbert
TTITLE14=Nevertheless - The Skylighters
TTITLE15=From A Rooftop - Todd Snider
EXTD=A compilation of artists living in East Nashville
EXTT0=
EXTT1=
EXTT2=
EXTT3=
EXTT4=
EXTT5=
EXTT6=
EXTT7=
EXTT8=
EXTT9=
EXTT10=
EXTT11=
EXTT12=
EXTT13=
EXTT14=
EXTT15=
PLAYORDER=
